<svg width="453.96001586914065" height="100.54110943015819" viewBox="0 0 350 77.51649279768094" class="looka-1j8o68f"><defs id="SvgjsDefs5631"><linearGradient id="SvgjsLinearGradient5636"><stop id="SvgjsStop5637" stop-color="#905e26" offset="0"></stop><stop id="SvgjsStop5638" stop-color="#f5ec9b" offset="0.5"></stop><stop id="SvgjsStop5639" stop-color="#905e26" offset="1"></stop></linearGradient><linearGradient id="SvgjsLinearGradient5640"><stop id="SvgjsStop5641" stop-color="#905e26" offset="0"></stop><stop id="SvgjsStop5642" stop-color="#f5ec9b" offset="0.5"></stop><stop id="SvgjsStop5643" stop-color="#905e26" offset="1"></stop></linearGradient></defs><g id="SvgjsG5632" featurekey="nameFeature-0" transform="matrix(0.878136911504399,0,0,0.878136911504399,-2.50962886085686,-10.035266111746536)" fill="url(#SvgjsLinearGradient5636)"><path d="M19.429 17.714 l-9.1429 0 l0 16 l9.1429 0 l2.2857 -2.2857 l5.4286 0 l0 4.2857 l-4.2857 4.2857 l-15.714 0 l-4.2857 -4.2857 l0 -20 l4.2857 -4.2857 l15.714 0 l4.2857 4.2857 l0 4.2857 l-5.4286 0 z M58.571 15.713999999999999 l0 10 l-4.2857 4.2857 l4.2857 6.5714 l0 3.4286 l-6.8571 0 l-5.9429 -9.7143 l-5.4857 0 l0 9.7143 l-7.4286 0 l0 -28.571 l21.429 0 z M51.143 24 l0 -6.2857 l-10.857 0 l0 6.2857 l10.857 0 z M89.71457142857143 11.428999999999998 l0 3.4286 l-9.7143 15.714 l0 9.4286 l-7.4286 0 l0 -9.4857 l-9.7143 -15.657 l0 -3.4286 l6.5714 0 l6.8571 11.657 l6.8571 -11.657 l6.5714 0 z M93.99995714285714 40 l0 -28.571 l20.857 0 l4.2857 4.2857 l0 12 l-4.2857 4.2857 l-13.429 0 l0 8 l-7.4286 0 z M101.42885714285714 25.714 l10.286 0 l0 -8 l-10.286 0 l0 8 z M122.85714 17.714 l0 -6.2857 l24.286 0 l0 6.2857 l-8.4571 0 l0 22.286 l-7.4286 0 l0 -22.286 l-8.4 0 z M171.714 11.428999999999998 l4.2857 4.2857 l0 20 l-4.2857 4.2857 l-16.571 0 l-4.2857 -4.2857 l0 -20 l4.2857 -4.2857 l16.571 0 z M168.571 33.7143 l0 -16 l-10.286 0 l0 16 l10.286 0 z M221.71385714285714 15.713999999999999 l0 6.9714 l-3.0286 3.0286 l3.0286 3.0286 l0 6.9714 l-4.2857 4.2857 l-21.429 0 l0 -28.571 l21.429 0 z M214.28585714285714 22.571 l0 -4.8571 l-10.857 0 l0 4.8571 l10.857 0 z M214.28585714285714 33.7143 l0 -4.8571 l-10.857 0 l0 4.8571 l10.857 0 z M227.42852857142856 40 l0 -24.286 l4.2857 -4.2857 l16.571 0 l4.2857 4.2857 l0 24.286 l-7.4286 0 l0 -8 l-10.286 0 l0 8 l-7.4286 0 z M234.85742857142856 25.714 l10.286 0 l0 -8 l-10.286 0 l0 8 z M258.2856714285714 35.7143 l0 -24.286 l7.4286 0 l0 22.286 l15.429 0 l0 6.2857 l-18.571 0 z M285.42852857142856 40 l0 -24.286 l4.2857 -4.2857 l16.571 0 l4.2857 4.2857 l0 24.286 l-7.4286 0 l0 -8 l-10.286 0 l0 8 l-7.4286 0 z M292.85742857142856 25.714 l10.286 0 l0 -8 l-10.286 0 l0 8 z M333.9995714285714 11.428999999999998 l7.4286 0 l0 28.571 l-6.5714 0 l-11.143 -16 l0 16 l-7.4286 0 l0 -28.571 l6.5714 0 l11.143 15.886 l0 -15.886 z M363.7147142857142 17.714 l-9.1429 0 l0 16 l9.1429 0 l2.2857 -2.2857 l5.4286 0 l0 4.2857 l-4.2857 4.2857 l-15.714 0 l-4.2857 -4.2857 l0 -20 l4.2857 -4.2857 l15.714 0 l4.2857 4.2857 l0 4.2857 l-5.4286 0 z M401.42871428571425 17.714 l-16.857 0 l0 4.8571 l14.571 0 l0 6.2857 l-14.571 0 l0 4.8571 l16.857 0 l0 6.2857 l-20 0 l-4.2857 -4.2857 l0 -24.286 l24.286 0 l0 6.2857 z"></path></g><g id="SvgjsG5633" featurekey="nameFeature-1" transform="matrix(1.4848521786335898,0,0,1.4848521786335898,-4.242665007868792,18.03124882466573)" fill="url(#SvgjsLinearGradient5640)"><path d="M27.143 17.714 l-16.857 0 l0 4.8571 l14.571 0 l0 6.2857 l-14.571 0 l0 4.8571 l16.857 0 l0 6.2857 l-20 0 l-4.2857 -4.2857 l0 -24.286 l24.286 0 l0 6.2857 z M32 40 l0 -3.4286 l7.8857 -10.857 l-7.8857 -10.857 l0 -3.4286 l6.5714 0 l6.2857 9.1429 l6.2857 -9.1429 l6.5714 0 l0 3.4286 l-7.8857 10.857 l7.8857 10.857 l0 3.4286 l-6.5714 0 l-6.2857 -9.1429 l-6.2857 9.1429 l-6.5714 0 z M62.57138571428571 40 l0 -28.571 l20.857 0 l4.2857 4.2857 l0 12 l-4.2857 4.2857 l-13.429 0 l0 8 l-7.4286 0 z M70.00028571428571 25.714 l10.286 0 l0 -8 l-10.286 0 l0 8 z M93.42852857142857 35.7143 l0 -24.286 l7.4286 0 l0 22.286 l15.429 0 l0 6.2857 l-18.571 0 z M141.42828571428572 11.428999999999998 l4.2857 4.2857 l0 20 l-4.2857 4.2857 l-16.571 0 l-4.2857 -4.2857 l0 -20 l4.2857 -4.2857 l16.571 0 z M138.28528571428572 33.7143 l0 -16 l-10.286 0 l0 16 l10.286 0 z M177.14242857142855 15.713999999999999 l0 10 l-4.2857 4.2857 l4.2857 6.5714 l0 3.4286 l-6.8571 0 l-5.9429 -9.7143 l-5.4857 0 l0 9.7143 l-7.4286 0 l0 -28.571 l21.429 0 z M169.71442857142856 24 l0 -6.2857 l-10.857 0 l0 6.2857 l10.857 0 z M207.14299999999997 17.714 l-16.857 0 l0 4.8571 l14.571 0 l0 6.2857 l-14.571 0 l0 4.8571 l16.857 0 l0 6.2857 l-20 0 l-4.2857 -4.2857 l0 -24.286 l24.286 0 l0 6.2857 z M238.57099999999997 15.713999999999999 l0 10 l-4.2857 4.2857 l4.2857 6.5714 l0 3.4286 l-6.8571 0 l-5.9429 -9.7143 l-5.4857 0 l0 9.7143 l-7.4286 0 l0 -28.571 l21.429 0 z M231.14299999999997 24 l0 -6.2857 l-10.857 0 l0 6.2857 l10.857 0 z"></path></g></svg>